<?xml version="1.0" encoding="utf-8"?>
<!-- Generator: Adobe Illustrator 16.0.0, SVG Export Plug-In . SVG Version: 6.00 Build 0)  -->
<!DOCTYPE svg PUBLIC "-//W3C//DTD SVG 1.1//EN" "http://www.w3.org/Graphics/SVG/1.1/DTD/svg11.dtd">
<svg version="1.1" id="Layer_1" xmlns="http://www.w3.org/2000/svg" xmlns:xlink="http://www.w3.org/1999/xlink" x="0px" y="0px"
	 width="32px" height="32px" fill="#bdc3c7" viewBox="0 0 32 32" enable-background="new 0 0 32 32" xml:space="preserve">
<g>
	<path d="M7.901,16.172c0,0,5.651-5.625,5.651-10.321c0-3.122-2.53-5.652-5.651-5.652S2.25,2.729,2.25,5.851
		C2.25,10.813,7.901,16.172,7.901,16.172z M4.956,5.851c0-1.628,1.319-2.946,2.945-2.946s2.945,1.318,2.945,2.946
		c0,1.626-1.319,2.944-2.945,2.944S4.956,7.477,4.956,5.851z"/>
	<path d="M28.788,7.842l-0.46,0.146l-2.455,0.219l-0.692,1.106l-0.501-0.16l-1.953-1.76l-0.285-0.915l-0.377-0.977l-1.228-1.102
		L19.39,4.116l-0.033,0.663l1.418,1.384l0.694,0.817l-0.782,0.408l-0.636-0.188L19.1,6.804l0.033-0.769l-1.25-0.514l-0.415,1.804
		l-1.259,0.286l0.125,1.007l1.638,0.316l0.284-1.609l1.353,0.201l0.629,0.368h1.01l0.691,1.384l1.833,1.859l-0.134,0.723
		l-1.478-0.189l-2.552,1.289l-1.838,2.205l-0.239,0.976h-0.661l-1.229-0.566l-1.194,0.566l0.297,1.261l0.52-0.601l0.913-0.028
		l-0.064,1.132l0.757,0.22l0.756,0.85l1.234-0.347l1.41,0.222l1.636,0.441l0.819,0.095l1.384,1.573l2.675,1.574l-1.729,3.306
		l-1.826,0.849l-0.693,1.888l-2.643,1.765l-0.282,1.019c6.753-1.627,11.779-7.694,11.779-14.951
		C31.392,13.237,30.432,10.289,28.788,7.842z"/>
	<path d="M17.771,24.452l-1.12-2.078l1.028-2.146l-1.028-0.31l-1.156-1.159l-2.56-0.573l-0.85-1.78v1.057H11.71l-1.625-2.203
		c-0.793,0.949-1.395,1.554-1.47,1.629l-0.697,0.694l-0.713-0.677c-0.183-0.175-3.458-3.315-5.077-7.13
		c-0.966,2.009-1.52,4.252-1.52,6.63c0,8.502,6.891,15.396,15.393,15.396c0.654,0,1.297-0.057,1.931-0.135l-0.161-1.864
		c0,0,0.707-2.77,0.707-2.864S17.771,24.452,17.771,24.452z"/>
	<path d="M14.784,3.967l1.133,0.187l2.749-0.258l0.757-0.834l1.068-0.714l1.511,0.228l0.551-0.083
		C20.562,1.556,18.346,1.014,16,1.014c-1.096,0-2.16,0.128-3.191,0.345c0.801,0.875,1.377,1.958,1.622,3.163L14.784,3.967z
		 M16.651,2.542l1.573-0.865l1.009,0.582l-1.462,1.113l-1.394,0.141l-0.629-0.407L16.651,2.542z"/>
</g>
</svg>
