<?xml version="1.0" encoding="iso-8859-1"?>
<!-- Generator: Adobe Illustrator 16.0.4, SVG Export Plug-In . SVG Version: 6.00 Build 0)  -->
<!DOCTYPE svg PUBLIC "-//W3C//DTD SVG 1.1//EN" "http://www.w3.org/Graphics/SVG/1.1/DTD/svg11.dtd">
<svg version="1.1" id="Capa_1" xmlns="http://www.w3.org/2000/svg" xmlns:xlink="http://www.w3.org/1999/xlink" x="0px" y="0px"
	 width="32px" height="34.988px" fill="#bdc3c7" viewBox="0 0 27.219 34.988" style="enable-background:new 0 0 27.219 34.988;"
	 xml:space="preserve">
<path d="M5.061,2.922L4.305,2.167c2.887-2.888,7.586-2.889,10.473-0.001l-0.756,0.757C11.551,0.452,7.531,0.452,5.061,2.922z
	 M13.471,3.474c-2.168-2.166-5.693-2.166-7.859,0.001L6.369,4.23c1.748-1.749,4.597-1.749,6.347-0.001L13.471,3.474z M7.719,5.58
	c1.004-1.006,2.641-1.006,3.646,0l0.756-0.757C10.699,3.4,8.385,3.4,6.961,4.824L7.719,5.58z M16.758,15.517l-0.24,0.24
	c-0.535,0.535-0.535,1.401,0.002,1.937l0.105,0.105c0.535,0.536,1.4,0.536,1.936,0.001l1.809-1.808l0.238-0.239
	c0.535-0.535,0.535-1.403,0-1.938L20.5,13.709c-0.532-0.535-1.399-0.535-1.936,0L16.758,15.517z M20.742,16.366l-1.808,1.809
	c-0.532,0.533-0.532,1.401,0,1.936l0.104,0.106c0.535,0.534,1.402,0.534,1.937,0l0.24-0.241l1.567-1.566l0.238-0.24
	c0.537-0.535,0.535-1.4,0.002-1.937l-0.107-0.104c-0.534-0.534-1.399-0.537-1.936-0.001L20.742,16.366z M26.713,25.158l-8.08,8.081
	c-0.674,0.674-1.777,0.674-2.449,0.001l-1.391-1.391l-1.471,1.47c0,0-2.191,2.175-5.16,1.56c-0.023-0.005-0.047-0.008-0.069-0.013
	c-0.129-0.028-0.261-0.066-0.392-0.105c-0.107-0.032-0.219-0.07-0.328-0.11c-0.107-0.04-0.215-0.077-0.324-0.125
	c-0.219-0.095-0.438-0.204-0.661-0.333c-0.065-0.039-0.134-0.087-0.201-0.129C6,33.948,5.812,33.818,5.623,33.674
	C5.55,33.618,5.476,33.562,5.4,33.501c-0.252-0.203-0.505-0.422-0.76-0.678c-2.861-2.861-2.736-5.41-2.201-6.697
	c0.002-0.004,0.438-1.61,0.967-3.524c0.149-0.544,0.308-1.111,0.463-1.677l-3.363-3.364c-0.674-0.673-0.674-1.775,0-2.45l8.08-8.079
	c0.674-0.674,1.777-0.674,2.449,0l4.688,4.686l0.426-0.427c0.535-0.535,1.402-0.533,1.937,0l0.106,0.107
	c0.535,0.534,0.535,1.4,0,1.936l-0.24,0.241l-1.565,1.566l-0.242,0.24c-0.532,0.533-1.397,0.536-1.935,0l-0.104-0.104
	c-0.534-0.536-0.534-1.403,0-1.938l0.238-0.24v-0.001l0.528-0.528l-3.969-3.969l-8.828,8.825l2.168,2.166
	c0.369-1.319,0.699-2.471,0.873-3.019c0.549-1.739,1.935-1.675,2.594-0.617c0.513,0.815,0.115,2.672-0.151,4.774
	c-0.053,0.415-0.192,1.096-0.354,1.821l8.793,8.792l8.824-8.825l-0.656-0.655l-0.769,0.769c-0.534,0.535-1.401,0.533-1.936,0
	l-0.107-0.107c-0.534-0.534-0.534-1.399,0-1.936l0.24-0.24l1.567-1.567l0.238-0.24c0.535-0.534,1.4-0.535,1.937-0.001l0.104,0.106
	c0.537,0.535,0.535,1.401,0,1.938l-0.238,0.238l0.002,0.002l-0.188,0.187l1.697,1.697C27.387,23.382,27.387,24.484,26.713,25.158z
	 M4.137,13.545c0.08,0.082,0.215,0.08,0.295-0.001l2.586-2.586c0.082-0.081,0.082-0.214,0-0.295
	c-0.082-0.082-0.215-0.082-0.295-0.001l-2.586,2.586C4.055,13.329,4.055,13.462,4.137,13.545z M22.061,27.363
	c-0.338-0.339-0.887-0.339-1.225,0c-0.338,0.338-0.336,0.886,0,1.224c0.34,0.339,0.887,0.339,1.225,0.001
	C22.398,28.249,22.398,27.702,22.061,27.363z"/>
<g>
</g>
<g>
</g>
<g>
</g>
<g>
</g>
<g>
</g>
<g>
</g>
<g>
</g>
<g>
</g>
<g>
</g>
<g>
</g>
<g>
</g>
<g>
</g>
<g>
</g>
<g>
</g>
<g>
</g>
</svg>
