<?xml version="1.0" encoding="iso-8859-1"?>
<!-- Generator: Adobe Illustrator 17.0.2, SVG Export Plug-In . SVG Version: 6.00 Build 0)  -->
<!DOCTYPE svg PUBLIC "-//W3C//DTD SVG 1.1//EN" "http://www.w3.org/Graphics/SVG/1.1/DTD/svg11.dtd">
<svg version="1.1" id="Layer_1" xmlns="http://www.w3.org/2000/svg" xmlns:xlink="http://www.w3.org/1999/xlink" x="0px" y="0px"
	 width="32px" height="32px" fill="#bdc3c7" viewBox="0 0 64 64" style="enable-background:new 0 0 64 64;" xml:space="preserve">
<g>
	<path d="M42.036,17.068h-3.426H25.458h-3.326l-2.105,17.685h24.114L42.036,17.068z M34.639,30.756
		c-0.468,0.29-1.012,0.489-1.616,0.592c-0.16,0.027-0.289,0.168-0.289,0.314v0.518c0,0.421-0.271,0.75-0.616,0.75
		c-0.345,0-0.616-0.329-0.616-0.75v-0.503c0-0.148-0.131-0.295-0.286-0.32c-0.789-0.13-1.385-0.332-1.821-0.619
		c-0.819-0.553-1.278-1.443-1.365-2.651c-0.014-0.196,0.053-0.385,0.188-0.531c0.14-0.15,0.339-0.236,0.546-0.236h1.038
		c0.396,0,0.747,0.303,0.814,0.703c0.07,0.418,0.146,0.61,0.196,0.698c0.106,0.182,0.285,0.319,0.545,0.419
		c0.118,0.021,0.144-0.066,0.144-0.138v-2.223c0-0.191-0.091-0.334-0.129-0.353l-0.304-0.09c-1.007-0.295-1.733-0.721-2.16-1.263
		c-0.429-0.546-0.646-1.21-0.646-1.974c0-0.499,0.083-0.959,0.249-1.369c0.165-0.41,0.4-0.771,0.701-1.072
		c0.383-0.384,0.819-0.653,1.295-0.801c0.187-0.061,0.421-0.109,0.713-0.147c0.155-0.021,0.281-0.156,0.281-0.304
		c0-0.425,0.271-0.754,0.616-0.754c0.346,0,0.616,0.329,0.616,0.75c0,0.166,0.128,0.307,0.286,0.332
		c0.621,0.103,1.137,0.301,1.534,0.589c0.775,0.493,1.243,1.267,1.378,2.291c0.026,0.197-0.032,0.388-0.163,0.537
		c-0.136,0.155-0.335,0.244-0.547,0.244h-0.985c-0.385,0-0.735-0.3-0.812-0.697c-0.036-0.179-0.081-0.319-0.132-0.417
		c-0.092-0.173-0.227-0.294-0.415-0.37c-0.085-0.006-0.144,0.065-0.144,0.164v1.876c0,0.171,0.144,0.373,0.307,0.434
		c0.966,0.354,1.621,0.67,2.001,0.963c0.738,0.577,1.112,1.396,1.112,2.433C36.154,29.136,35.644,30.137,34.639,30.756z"/>
	<path d="M31.362,21.895c-0.011,0-0.021,0.002-0.033,0.006c-0.156,0.045-0.277,0.114-0.37,0.213
		c-0.167,0.177-0.249,0.421-0.249,0.745c0,0.344,0.124,0.607,0.379,0.807c0.081,0.063,0.195,0.127,0.337,0.188
		c0.07,0.01,0.074-0.071,0.074-0.114V22.09C31.502,21.987,31.436,21.895,31.362,21.895z"/>
	<path d="M32.033,10.493c-2.273,0-4.179,1.512-4.824,3.575h9.648C36.213,12.005,34.306,10.493,32.033,10.493z"/>
	<path d="M32.835,26.944l-0.059-0.016c-0.042,0-0.043,0.095-0.043,0.099v1.951c0,0.105,0.053,0.177,0.103,0.177
		c0.167-0.044,0.278-0.093,0.359-0.15c0.243-0.18,0.367-0.516,0.367-0.998c0-0.36-0.116-0.634-0.353-0.838
		C33.129,27.102,33.002,27.025,32.835,26.944z"/>
	<path d="M9.878,26.182c0,1.808,0.24,3.657,0.715,5.502c0.011,0.124,0.039,0.248,0.082,0.369c0.139,0.387,1.383,3.827,2.244,5.281
		c4.388,8.344,10.4,15.489,17.875,21.242c0.134,0.181,0.309,0.333,0.517,0.44c0.217,0.112,0.454,0.168,0.69,0.168
		c0.19,0,0.381-0.036,0.56-0.108c0.077-0.026,0.153-0.059,0.227-0.097c0.157-0.082,0.296-0.192,0.413-0.323
		c16.783-12.854,20.056-26.327,20.177-26.854c0.495-1.89,0.747-3.781,0.747-5.621C54.122,13.983,44.198,4.06,32,4.06
		S9.878,13.983,9.878,26.182z M20.8,14.068h3.303c0.706-3.738,3.99-6.575,7.931-6.575s7.225,2.837,7.931,6.575h3.403
		c0.76,0,1.4,0.568,1.489,1.322l2.462,20.685c0.051,0.426-0.083,0.854-0.368,1.174s-0.693,0.504-1.122,0.504H18.338
		c-0.429,0-0.837-0.184-1.122-0.504s-0.418-0.748-0.368-1.174l2.462-20.685C19.4,14.637,20.04,14.068,20.8,14.068z"/>
</g>
</svg>
