<?xml version="1.0" encoding="utf-8"?>
<!-- Generator: Adobe Illustrator 15.0.0, SVG Export Plug-In . SVG Version: 6.00 Build 0)  -->
<!DOCTYPE svg PUBLIC "-//W3C//DTD SVG 1.1//EN" "http://www.w3.org/Graphics/SVG/1.1/DTD/svg11.dtd">
<svg version="1.1" id="Layer_1" xmlns="http://www.w3.org/2000/svg" xmlns:xlink="http://www.w3.org/1999/xlink" x="0px" y="0px"
	 width="26px" height="26px" viewBox="0 0 26 26" enable-background="new 0 0 26 26" xml:space="preserve">
<path d="M19.22-2.516"/>
<path d="M17.174,7.684L16.141,4.47l-1.147,1.021L12.612,4.27l-0.108,1.856l-1.016-1.017L8.597,7.684H5.379v2.631h1.177l0.912,10.454
	c0.014,1.154,0.957,2.089,2.115,2.089h6.075c1.159,0,2.104-0.938,2.115-2.097l0.93-10.446h1.157V7.684H17.174z M10.462,13.433
	l2.19-2.189l2.19,2.189l-2.19,2.19L10.462,13.433z M14.348,18.201l-1.695,1.694l-1.695-1.694l1.695-1.694L14.348,18.201z
	 M12.609,10.314h0.087l-0.043,0.044L12.609,10.314z M13.095,10.801l0.485-0.486h2.809l0.786,0.786l-1.89,1.89L13.095,10.801z
	 M16.649,7.684h-2.587l-0.367-0.366l2.204-1.964L16.649,7.684z M13.066,5.064l1.527,0.784l-1.252,1.114l-0.364-0.364L13.066,5.064z
	 M11.468,5.797l1.887,1.887H9.35L11.468,5.797z M8.916,10.314h2.809l0.486,0.486l-2.19,2.189l-1.891-1.89L8.916,10.314z
	 M7.535,10.314h0.497l-0.344,0.344l-0.135-0.135L7.535,10.314z M7.949,15.062l-0.303-3.477l0.043-0.042l1.89,1.89L7.949,15.062z
	 M10.021,13.874l2.19,2.19l-1.694,1.695l-2.19-2.191L10.021,13.874z M10.074,18.202l-1.37,1.369l-0.36-3.099L10.074,18.202z
	 M9.583,21.881c-0.628,0-1.139-0.511-1.139-1.139l-0.002-0.024L8.64,20.52l1.361,1.361H9.583z M10.582,21.578l-1.5-1.501
	l1.434-1.434l1.694,1.694l-1.24,1.24H10.582z M11.855,21.578l0.798-0.798l0.797,0.798H11.855z M14.335,21.578l-1.24-1.24
	l1.694-1.694l1.435,1.434l-1.501,1.501H14.335z M16.798,20.706l-0.001,0.036c0,0.628-0.511,1.139-1.139,1.139h-0.354l1.36-1.361
	l0.138,0.137L16.798,20.706z M16.602,19.571l-1.37-1.37l1.729-1.729L16.602,19.571z M14.789,17.76l-1.694-1.695l2.19-2.19
	l1.694,1.694L14.789,17.76z M17.306,15.012l-1.578-1.579l1.888-1.889L17.306,15.012z M17.701,10.573l-0.084,0.085l-0.344-0.344
	h0.451L17.701,10.573z"/>
</svg>
