<?xml version="1.0" encoding="iso-8859-1"?>
<!-- Generator: Adobe Illustrator 17.1.0, SVG Export Plug-In . SVG Version: 6.00 Build 0)  -->
<!DOCTYPE svg PUBLIC "-//W3C//DTD SVG 1.1//EN" "http://www.w3.org/Graphics/SVG/1.1/DTD/svg11.dtd">
<svg version="1.1" id="Capa_1" xmlns="http://www.w3.org/2000/svg" xmlns:xlink="http://www.w3.org/1999/xlink" x="0px" y="0px"
	 viewBox="0 0 150 150" width="32px" height="32px" fill="#bdc3c7" style="enable-background:new 0 0 150 150;" xml:space="preserve">
<g>
	<path d="M141.191,135.786c0.022-1.38,0.322-2.771,0.077-4.185c-0.222-1.274-1.579-2.548-2.586-3.226
		c-3.444-2.321-10.285-4.889-10.518-9.694c-0.035-0.727-0.326-1.281-0.742-1.68c-0.351-0.967-1.273-1.755-2.343-1.683
		c-0.49,0.033-0.705-0.134-1.149-0.384c-0.412-0.232-0.828-0.442-1.253-0.634c-0.065-0.153-0.117-0.307-0.186-0.46
		c-0.339-0.755-1.36-1.271-2.159-1.238c-1.554,0.064-3.302,0.259-4.469,1.416c-0.858,0.851-1.355,1.885-1.397,3.012
		c-0.079,0.172-0.166,0.331-0.229,0.528c-0.683,2.124-3.622,1.933-5.484,2.524c-0.802,0.255-1.595,0.577-2.385,0.924
		c-0.456-1.454-1.094-2.829-2.077-4.005c-2.02-2.418-8.341-1.188-11.01-1.188c-1.252,0-3.005,0.247-3.912,1.229
		c-0.753,0.815-1.294,0.072-2.725,0.465c-2.251,0.619-3.436,2.373-3.756,4.385c-2.592-0.09-5.22-0.141-7.888-0.141
		c-0.998,0-1.988,0.011-2.976,0.024c-0.201-0.69-0.589-1.34-1.205-1.919c-1.53-1.439-4.131-1.538-6.106-1.449
		c-2.517,0.114-4.91,1.746-5.735,3.922c-4.022,0.292-7.922,0.685-11.655,1.18c-3.066-2.28-6.733-4.883-10.025-4.636
		c-5.553,0.416-11.104,3.255-16.316,5.1c-1.054,0.373-1.572,1.208-1.682,2.088c-0.119,0.188-0.227,0.392-0.303,0.633
		c-0.42,1.321-0.746,2.654-1.011,4.001c-9.051,3.77-14.425,8.464-14.425,13.555h142.874
		C146.437,141.255,144.563,138.399,141.191,135.786z"/>
	<path d="M73.667,17v98c0,3.869,6,3.869,6,0V17C79.667,13.131,73.667,13.131,73.667,17z"/>
	<path d="M135.354,42.334c0.2-7.889-0.021-15.814-0.021-23.707c0.418-2.403-2.833-4.825-5.136-2.672
		c-6.251,5.842-13.387,4.841-20.367,1.148C105.336,14.726,82,11.129,82,19.667c0,0.001,0,28.333,0,28.335
		c0.001,4.281,3.784,2.93,6.02,2.223c3.333-1.054,5.912-1.558,9.454-0.963c6.587,1.107,12.557,4.987,19.228,5.595
		C124.884,55.602,135.127,51.324,135.354,42.334z"/>
	<path d="M34.138,45.294c0.309,1.37,1.362,1.672,2.351,0.676l6.07-6.111l8.611,0.187c1.404,0.03,1.911-0.892,1.132-2.061
		l-5.127-7.694l4.014-8.353c0.608-1.266-0.014-2.062-1.389-1.779l-8.608,1.772l-6.833-5.636c-1.083-0.893-2.091-0.487-2.251,0.908
		l-1.008,8.8l-7.427,4.698c-1.187,0.751-1.094,1.787,0.207,2.316l8.243,3.347L34.138,45.294z"/>
	<path d="M29.549,60.388l-4.837,0.996l-3.84-3.167c-0.609-0.502-1.175-0.274-1.265,0.51l-0.566,4.945l-4.174,2.64
		c-0.667,0.422-0.615,1.004,0.116,1.301l4.632,1.881l1.132,5.017c0.174,0.77,0.765,0.94,1.322,0.38l3.411-3.434l4.839,0.105
		c0.789,0.017,1.073-0.501,0.636-1.158l-2.881-4.324l2.256-4.694C30.672,60.677,30.322,60.229,29.549,60.388z"/>
	<path d="M108.02,92.084l5.062-0.017l3.501,3.657c0.571,0.596,1.165,0.423,1.327-0.386l1.067-5.329l5.14-1.803
		c0.779-0.273,0.851-0.863,0.162-1.317l-4.314-2.841l-0.498-5.183c-0.079-0.822-0.667-1.071-1.313-0.558l-4.077,3.239l-5.04-1.134
		c-0.805-0.181-1.198,0.288-0.876,1.049l2.035,4.817l-2.874,4.549C106.883,91.524,107.194,92.087,108.02,92.084z"/>
	<path d="M131.566,78.905l1.879-0.006l1.299,1.357c0.212,0.221,0.433,0.157,0.493-0.143l0.396-1.978l1.908-0.669
		c0.289-0.101,0.316-0.32,0.06-0.489L136,75.922l-0.185-1.924c-0.029-0.305-0.248-0.398-0.487-0.207l-1.513,1.202l-1.871-0.421
		c-0.299-0.067-0.444,0.107-0.325,0.389l0.755,1.788l-1.067,1.688C131.144,78.697,131.26,78.906,131.566,78.905z"/>
	<path d="M123.053,63.78l-2.229,0.459l-1.769-1.459c-0.281-0.231-0.542-0.126-0.583,0.235l-0.261,2.279l-1.923,1.216
		c-0.307,0.194-0.283,0.463,0.054,0.6l2.134,0.867l0.521,2.312c0.08,0.355,0.353,0.433,0.609,0.175l1.572-1.582l2.229,0.048
		c0.364,0.008,0.495-0.231,0.293-0.534l-1.327-1.992l1.039-2.163C123.57,63.913,123.409,63.707,123.053,63.78z"/>
</g>
</svg>
